HIERARCHY
ROOT Hips
{
	OFFSET -0.001795 -0.223333 0.028219
	CHANNELS 6 Xposition Yposition Zposition Zrotation Yrotation Xrotation 
	JOINT LeftUpLeg
	{
		OFFSET 0.069520 -0.091406 -0.006815
		CHANNELS 3 Zrotation Yrotation Xrotation
		JOINT LeftLeg
		{
			OFFSET 0.034277 -0.375199 -0.004496
			CHANNELS 3 Zrotation Yrotation Xrotation
			JOINT LeftFoot
			{
				OFFSET -0.013596 -0.397961 -0.043693
				CHANNELS 3 Zrotation Yrotation Xrotation
				JOINT LeftToe
				{
					OFFSET 0.026358 -0.055791 0.119288
					CHANNELS 3 Zrotation Yrotation Xrotation
					End Site
					{
						OFFSET 0.000000 0.000000 0.000000
					}
				}
			}
		}
	}
	JOINT RightUpLeg
	{
		OFFSET -0.067670 -0.090522 -0.004320
		CHANNELS 3 Zrotation Yrotation Xrotation
		JOINT RightLeg
		{
			OFFSET -0.038290 -0.382569 -0.008850
			CHANNELS 3 Zrotation Yrotation Xrotation
			JOINT RightFoot
			{
				OFFSET 0.015774 -0.398415 -0.042312
				CHANNELS 3 Zrotation Yrotation Xrotation
				JOINT RightToe
				{
					OFFSET -0.025372 -0.048144 0.123348
					CHANNELS 3 Zrotation Yrotation Xrotation
					End Site
					{
						OFFSET 0.000000 0.000000 0.000000
					}
				}
			}
		}
	}
	JOINT Spine
	{
		OFFSET -0.002533 0.108963 -0.026696
		CHANNELS 3 Zrotation Yrotation Xrotation
		JOINT Spine1
		{
			OFFSET 0.005487 0.135180 0.001092
			CHANNELS 3 Zrotation Yrotation Xrotation
			JOINT Spine2
			{
				OFFSET 0.001457 0.052922 0.025425
				CHANNELS 3 Zrotation Yrotation Xrotation
				JOINT Neck
				{
					OFFSET -0.002778 0.213870 -0.042857
					CHANNELS 3 Zrotation Yrotation Xrotation
					JOINT Head
					{
						OFFSET 0.005152 0.064970 0.051349
						CHANNELS 3 Zrotation Yrotation Xrotation
						End Site
						{
							OFFSET 0.000000 0.000000 0.000000
						}
					}
				}
				JOINT LeftShoulder
				{
					OFFSET 0.078845 0.121749 -0.034090
					CHANNELS 3 Zrotation Yrotation Xrotation
					JOINT LeftArm
					{
						OFFSET 0.090977 0.030469 -0.008868
						CHANNELS 3 Zrotation Yrotation Xrotation
						JOINT LeftForeArm
						{
							OFFSET 0.259612 -0.012772 -0.027456
							CHANNELS 3 Zrotation Yrotation Xrotation
							JOINT LeftHand
							{
								OFFSET 0.249234 0.008986 -0.001171
								CHANNELS 3 Zrotation Yrotation Xrotation
								End Site
								{
									OFFSET 0.000000 0.000000 0.000000
								}
							}
						}
					}
				}
				JOINT RightShoulder
				{
					OFFSET -0.081759 0.118833 -0.038615
					CHANNELS 3 Zrotation Yrotation Xrotation
					JOINT RightArm
					{
						OFFSET -0.096012 0.032551 -0.009143
						CHANNELS 3 Zrotation Yrotation Xrotation
						JOINT RightForeArm
						{
							OFFSET -0.253742 -0.013329 -0.021401
							CHANNELS 3 Zrotation Yrotation Xrotation
							JOINT RightHand
							{
								OFFSET -0.255298 0.007772 -0.005559
								CHANNELS 3 Zrotation Yrotation Xrotation
								End Site
								{
									OFFSET 0.000000 0.000000 0.000000
								}
							}
						}
					}
				}
			}
		}
	}
}
MOTION
Frames: 9
Frame Time: 0.050000
0.000000 0.937432 0.000000 -2.523057 -8.066271 4.802449 7.400887 -0.172212 -6.497327 -2.761252 0.678787 22.263647 5.039625 10.700656 -0.161319 0.000000 0.000000 0.000000 -3.949748 1.847438 -20.971578 6.154698 -0.530825 13.896213 -5.159107 -15.220075 9.661558 0.000000 0.000000 0.000000 -0.179286 -0.285873 8.058267 6.751925 -0.955892 -25.286747 -1.883095 -2.541453 30.319093 -1.098026 0.989609 -27.884231 0.000000 0.000000 0.000000 -28.820706 5.027399 -2.065899 -51.248755 -12.633814 -4.268795 -12.087688 -28.788968 5.315951 0.000000 0.000000 0.000000 17.825818 1.110310 -2.300904 58.604035 -2.846485 -9.781045 5.003033 26.229743 1.911541 0.000000 0.000000 0.000000 
-0.016395 0.939202 0.015384 -2.961869 -7.840219 5.699540 10.347275 0.044266 -11.223884 -4.588915 1.806920 31.468874 5.480234 11.758340 1.664393 0.000000 0.000000 0.000000 -3.367162 1.934315 -21.081544 7.022041 -0.711295 15.982990 -5.889047 -16.423800 8.745535 0.000000 0.000000 0.000000 0.843992 -0.357448 7.267057 7.183833 -1.109578 -24.591075 -1.264451 -2.264909 29.865089 -3.656740 2.535125 -27.823283 0.000000 0.000000 0.000000 -30.590226 6.045928 -3.106617 -50.790991 -11.537719 -4.677446 -11.965549 -29.662208 5.450464 0.000000 0.000000 0.000000 16.549442 1.488893 -1.783432 58.410416 -0.976966 -8.878616 4.434109 23.690245 1.613603 0.000000 0.000000 0.000000 
-0.029300 0.942242 0.030086 -2.503693 -7.050194 5.970065 9.990060 0.036914 -15.743598 -4.412812 1.985103 37.418993 6.547756 13.912933 2.546844 0.000000 0.000000 0.000000 -3.028749 1.868256 -20.268327 6.671516 -0.665864 16.507168 -6.129024 -16.967108 9.913839 0.000000 0.000000 0.000000 1.618664 -0.410818 6.842722 6.792522 -1.043321 -24.368661 -1.137531 -1.525820 29.522104 -4.472498 3.207652 -27.921634 0.000000 0.000000 0.000000 -31.611348 5.222811 -3.092536 -49.426158 -9.919483 -5.194177 -12.188866 -28.890786 5.228392 0.000000 0.000000 0.000000 16.676656 0.923505 -1.784479 56.308574 -2.770608 -9.334910 6.219496 23.863987 2.007368 0.000000 0.000000 0.000000 
-0.038266 0.945107 0.044768 -1.865174 -6.781477 6.055773 10.000079 0.100180 -19.687179 -7.291457 3.556953 39.908463 8.949351 18.455870 3.302387 0.000000 0.000000 0.000000 -3.372356 1.680626 -18.885388 6.646268 -0.675176 15.631970 -6.035386 -16.789066 10.235443 0.000000 0.000000 0.000000 0.874078 -0.333590 6.579503 8.065259 -1.332481 -24.222191 -1.619118 -0.317612 29.422311 -4.670731 3.548204 -28.770351 0.000000 0.000000 0.000000 -32.169281 6.169229 -4.497237 -49.273630 -8.772437 -5.402866 -14.137862 -28.924281 5.667923 0.000000 0.000000 0.000000 16.624529 1.676298 -1.057242 54.903028 -2.289714 -8.857046 6.975283 23.033067 2.111562 0.000000 0.000000 0.000000 
-0.044531 0.947786 0.058907 -0.789687 -5.400928 5.491130 8.649403 -0.187855 -22.601936 -8.605113 3.760676 38.281589 10.573077 21.374286 4.264135 0.000000 0.000000 0.000000 -4.319989 1.335129 -16.571095 6.311850 -0.665743 14.468239 -6.121771 -16.837759 10.659553 0.000000 0.000000 0.000000 0.538290 -0.345241 7.607438 7.397403 -1.185087 -24.109041 -1.469759 0.164727 28.852801 -5.243358 4.086470 -28.762677 0.000000 0.000000 0.000000 -31.574259 5.612668 -4.655670 -49.304452 -7.560298 -5.641973 -15.357526 -28.964606 5.888163 0.000000 0.000000 0.000000 17.007332 1.069646 -1.091616 53.298451 -2.339359 -8.580528 8.040713 23.122085 2.361912 0.000000 0.000000 0.000000 
-0.048501 0.949465 0.072674 -0.158359 -4.491784 5.735317 8.156220 -0.349108 -24.663762 -9.544227 3.418817 31.787847 10.925159 21.946784 5.392260 0.000000 0.000000 0.000000 -4.566077 1.194572 -15.290952 6.161000 -0.671314 13.760301 -6.445490 -17.311075 10.492254 0.000000 0.000000 0.000000 0.261416 -0.323096 7.658859 6.964150 -1.090925 -23.884522 -1.160320 1.206630 28.490597 -6.338868 4.921474 -29.564578 0.000000 0.000000 0.000000 -32.017053 4.876087 -4.920714 -48.598039 -6.751868 -5.650599 -16.585903 -28.508097 5.972455 0.000000 0.000000 0.000000 16.883607 0.733177 -0.876887 53.116713 -2.308377 -8.524138 7.453114 23.706590 2.384505 0.000000 0.000000 0.000000 
-0.050929 0.949878 0.086897 0.211963 -3.247419 6.092757 7.592384 -0.569158 -25.276378 -9.663610 2.620885 23.403961 11.198368 22.358558 7.105816 0.000000 0.000000 0.000000 -4.899965 1.088617 -14.521545 6.880196 -0.883872 14.295269 -7.448751 -18.972000 9.412271 0.000000 0.000000 0.000000 0.323502 -0.337825 7.765311 6.428917 -0.957918 -23.801322 -0.938791 1.539599 28.315520 -6.774765 5.301880 -30.271451 0.000000 0.000000 0.000000 -31.388063 5.062742 -5.460109 -49.604030 -5.955991 -5.891010 -16.106621 -28.544994 5.793185 0.000000 0.000000 0.000000 17.240011 0.613657 -0.705771 51.730110 -1.662429 -8.045046 8.133151 23.839257 2.565282 0.000000 0.000000 0.000000 
-0.051832 0.948048 0.102368 0.448785 -1.875685 5.802835 6.816819 -0.803098 -24.243579 -9.869187 1.993428 14.903421 11.678628 23.049721 9.353672 0.000000 0.000000 0.000000 -4.406443 0.935209 -12.073646 6.659563 -0.873100 12.792775 -8.148046 -20.152419 9.119067 0.000000 0.000000 0.000000 -0.331747 -0.295503 8.217804 5.708789 -0.748573 -24.086649 -0.069557 2.357771 28.965076 -6.267180 5.307827 -29.709538 0.000000 0.000000 0.000000 -31.333025 3.796093 -5.268209 -49.671668 -6.390216 -5.567590 -14.843911 -28.656965 5.367207 0.000000 0.000000 0.000000 16.987459 0.481623 -0.356324 52.634159 -1.295066 -8.092369 7.219838 24.648231 2.568715 0.000000 0.000000 0.000000 
-0.050854 0.945668 0.119931 0.395322 -0.133235 5.482586 5.621696 -1.103229 -23.376135 -8.756680 1.418669 10.536278 11.290863 22.410351 11.968114 0.000000 0.000000 0.000000 -3.810603 0.786988 -9.718603 6.600642 -0.910945 11.791626 -9.325925 -22.277369 8.438536 0.000000 0.000000 0.000000 -1.271499 -0.217618 8.388629 5.651115 -0.674210 -24.658943 0.150621 2.176879 29.724945 -6.127115 5.369721 -30.399679 0.000000 0.000000 0.000000 -30.405816 3.308955 -5.140400 -50.896446 -7.013443 -5.414748 -13.324633 -27.752331 4.760070 0.000000 0.000000 0.000000 17.629387 1.171319 0.252254 52.642174 0.168243 -7.618972 6.259601 25.420181 2.523161 0.000000 0.000000 0.000000 
